<svg xmlns="http://www.w3.org/2000/svg" viewBox="0 0 64 64" role="img" aria-label="Boar pixel sprite">
  <g shape-rendering="crispEdges">
    <rect width="64" height="64" fill="none"/>
    <rect x="12" y="56" width="40" height="5" fill="#171218" opacity=".65"/>
    <rect x="13" y="30" width="41" height="18" fill="#7f4e35"/>
    <rect x="18" y="24" width="31" height="10" fill="#99643f"/>
    <rect x="7" y="34" width="12" height="10" fill="#8d5739"/>
    <rect x="5" y="39" width="10" height="7" fill="#5f382d"/>
    <rect x="48" y="31" width="8" height="12" fill="#6a3e31"/>
    <rect x="54" y="27" width="5" height="9" fill="#5b332a"/>
    <rect x="18" y="20" width="7" height="5" fill="#3f2a25"/>
    <rect x="27" y="18" width="7" height="6" fill="#3f2a25"/>
    <rect x="37" y="20" width="7" height="5" fill="#3f2a25"/>
    <rect x="12" y="36" width="3" height="3" fill="#111114"/>
    <rect x="7" y="44" width="6" height="5" fill="#d9c5a2"/>
    <rect x="15" y="45" width="5" height="4" fill="#d9c5a2"/>
    <rect x="25" y="48" width="6" height="10" fill="#3c2723"/>
    <rect x="43" y="47" width="6" height="10" fill="#3c2723"/>
    <rect x="24" y="57" width="8" height="3" fill="#171218"/>
    <rect x="42" y="57" width="8" height="3" fill="#171218"/>
    <rect x="20" y="28" width="30" height="3" fill="#b07a4a"/>
    <rect x="30" y="34" width="5" height="4" fill="#c98757"/>
    <rect x="9" y="41" width="5" height="3" fill="#c78964"/>
  </g>
</svg>
