<svg xmlns="http://www.w3.org/2000/svg" viewBox="0 0 64 64" role="img" aria-label="Dragon pixel sprite">
  <g shape-rendering="crispEdges">
    <rect width="64" height="64" fill="none"/>
    <rect x="8" y="57" width="48" height="5" fill="#171218" opacity=".65"/>
    <rect x="14" y="26" width="32" height="23" fill="#a83c3f"/>
    <rect x="39" y="30" width="15" height="12" fill="#823039"/>
    <rect x="7" y="22" width="13" height="16" fill="#b44742"/>
    <rect x="9" y="17" width="5" height="6" fill="#f0c15d"/>
    <rect x="3" y="20" width="4" height="5" fill="#f0c15d"/>
    <rect x="13" y="27" width="4" height="4" fill="#111114"/>
    <rect x="52" y="36" width="8" height="7" fill="#6f2b33"/>
    <rect x="58" y="42" width="4" height="6" fill="#6f2b33"/>
    <rect x="34" y="18" width="10" height="10" fill="#773044"/>
    <rect x="40" y="12" width="10" height="12" fill="#c05252"/>
    <rect x="47" y="8" width="10" height="11" fill="#d86a50"/>
    <rect x="24" y="17" width="10" height="12" fill="#773044"/>
    <rect x="15" y="10" width="12" height="12" fill="#d86a50"/>
    <rect x="28" y="31" width="7" height="5" fill="#e18442"/>
    <rect x="28" y="38" width="7" height="5" fill="#e18442"/>
    <rect x="23" y="49" width="6" height="9" fill="#6f2b33"/>
    <rect x="41" y="48" width="6" height="10" fill="#6f2b33"/>
    <rect x="21" y="57" width="8" height="4" fill="#d8c2a6"/>
    <rect x="40" y="57" width="8" height="4" fill="#d8c2a6"/>
    <rect x="7" y="37" width="5" height="4" fill="#d8c2a6"/>
    <rect x="4" y="41" width="4" height="4" fill="#d8c2a6"/>
    <rect x="18" y="25" width="26" height="3" fill="#cf5751"/>
    <rect x="43" y="42" width="7" height="5" fill="#cf5751"/>
  </g>
</svg>
