<svg xmlns="http://www.w3.org/2000/svg" viewBox="0 0 64 64" role="img" aria-label="Orc pixel sprite">
  <g shape-rendering="crispEdges">
    <rect width="64" height="64" fill="none"/>
    <rect x="13" y="57" width="39" height="4" fill="#171218" opacity=".65"/>
    <rect x="23" y="10" width="19" height="6" fill="#394936"/>
    <rect x="19" y="16" width="27" height="17" fill="#6aa35f"/>
    <rect x="15" y="22" width="8" height="6" fill="#6aa35f"/>
    <rect x="43" y="22" width="8" height="6" fill="#6aa35f"/>
    <rect x="24" y="23" width="4" height="4" fill="#151417"/>
    <rect x="37" y="23" width="4" height="4" fill="#151417"/>
    <rect x="29" y="30" width="8" height="3" fill="#2e442f"/>
    <rect x="26" y="33" width="4" height="4" fill="#e2d3b2"/>
    <rect x="37" y="33" width="4" height="4" fill="#e2d3b2"/>
    <rect x="18" y="36" width="31" height="16" fill="#3b3340"/>
    <rect x="22" y="37" width="23" height="5" fill="#9ea9b0"/>
    <rect x="17" y="38" width="7" height="12" fill="#5d7f52"/>
    <rect x="46" y="38" width="7" height="12" fill="#5d7f52"/>
    <rect x="25" y="52" width="8" height="8" fill="#2c2a32"/>
    <rect x="38" y="52" width="8" height="8" fill="#2c2a32"/>
    <rect x="21" y="59" width="13" height="3" fill="#5a3428"/>
    <rect x="37" y="59" width="13" height="3" fill="#5a3428"/>
    <rect x="48" y="17" width="3" height="28" fill="#8b6038"/>
    <rect x="50" y="12" width="8" height="10" fill="#aeb7bd"/>
    <rect x="54" y="16" width="5" height="10" fill="#77828a"/>
    <rect x="15" y="27" width="4" height="3" fill="#e2d3b2"/>
    <rect x="47" y="27" width="4" height="3" fill="#e2d3b2"/>
  </g>
</svg>
