<svg xmlns="http://www.w3.org/2000/svg" viewBox="0 0 64 64" role="img" aria-label="Skeleton Knight pixel sprite">
  <g shape-rendering="crispEdges">
    <rect width="64" height="64" fill="none"/>
    <rect x="13" y="57" width="39" height="4" fill="#171218" opacity=".65"/>
    <rect x="23" y="11" width="18" height="6" fill="#d8d0bd"/>
    <rect x="20" y="17" width="24" height="15" fill="#eee7d4"/>
    <rect x="25" y="22" width="4" height="5" fill="#151417"/>
    <rect x="36" y="22" width="4" height="5" fill="#151417"/>
    <rect x="30" y="28" width="6" height="3" fill="#8b7f72"/>
    <rect x="18" y="34" width="30" height="18" fill="#646b73"/>
    <rect x="21" y="36" width="24" height="4" fill="#aeb7bd"/>
    <rect x="14" y="38" width="8" height="13" fill="#d8d0bd"/>
    <rect x="47" y="37" width="6" height="16" fill="#d8d0bd"/>
    <rect x="12" y="47" width="8" height="4" fill="#8b3a31"/>
    <rect x="51" y="49" width="5" height="4" fill="#8b3a31"/>
    <rect x="24" y="52" width="7" height="8" fill="#2d3138"/>
    <rect x="39" y="52" width="7" height="8" fill="#2d3138"/>
    <rect x="21" y="59" width="12" height="3" fill="#3f322c"/>
    <rect x="37" y="59" width="12" height="3" fill="#3f322c"/>
    <rect x="50" y="14" width="3" height="32" fill="#b8c1c8"/>
    <rect x="48" y="14" width="7" height="3" fill="#e8edf0"/>
    <rect x="8" y="31" width="9" height="15" fill="#3c4654"/>
    <rect x="10" y="34" width="5" height="9" fill="#768393"/>
  </g>
</svg>
