<svg xmlns="http://www.w3.org/2000/svg" viewBox="0 0 64 64" role="img" aria-label="Wyvern pixel sprite">
  <g shape-rendering="crispEdges">
    <rect width="64" height="64" fill="none"/>
    <rect x="9" y="57" width="47" height="5" fill="#171218" opacity=".65"/>
    <rect x="18" y="27" width="32" height="19" fill="#6d7f42"/>
    <rect x="8" y="24" width="16" height="12" fill="#879b4a"/>
    <rect x="5" y="20" width="8" height="7" fill="#d5be58"/>
    <rect x="12" y="28" width="4" height="4" fill="#111114"/>
    <rect x="47" y="30" width="11" height="8" fill="#536733"/>
    <rect x="54" y="26" width="5" height="5" fill="#536733"/>
    <rect x="22" y="17" width="12" height="13" fill="#4f6134"/>
    <rect x="14" y="9" width="15" height="13" fill="#8fa64f"/>
    <rect x="35" y="17" width="12" height="13" fill="#4f6134"/>
    <rect x="41" y="9" width="15" height="13" fill="#8fa64f"/>
    <rect x="29" y="34" width="7" height="4" fill="#d08f45"/>
    <rect x="21" y="46" width="6" height="11" fill="#3d4a2c"/>
    <rect x="40" y="46" width="6" height="11" fill="#3d4a2c"/>
    <rect x="19" y="56" width="8" height="4" fill="#d7c59a"/>
    <rect x="39" y="56" width="8" height="4" fill="#d7c59a"/>
    <rect x="7" y="35" width="5" height="4" fill="#e1d2aa"/>
    <rect x="3" y="38" width="5" height="3" fill="#e1d2aa"/>
  </g>
</svg>
